<?xml version="1.0" encoding="UTF-8"?>
<svg height="128px" viewBox="0 0 128 128" width="128px" xmlns="http://www.w3.org/2000/svg">
    <g fill="#1d1d1b">
        <path d="m 96.800781 13.5 h -65.601562 c -11.699219 0 -21.199219 9.5 -21.199219 21.199219 v 60.199219 c 0 11.703124 9.5 21.203124 21.199219 21.203124 h 65.601562 c 11.699219 0 21.199219 -9.5 21.199219 -21.203124 v -60.199219 c 0 -11.699219 -9.5 -21.199219 -21.199219 -21.199219 z m -2.800781 18.699219 c 0.800781 -0.199219 1.601562 0.300781 1.800781 1.199219 c 0.398438 1.902343 2.300781 3.203124 4.199219 2.703124 c 1.898438 -0.402343 3.199219 -2.300781 2.699219 -4.203124 c -0.199219 -0.898438 -0.699219 -1.699219 -1.5 -2.296876 c -0.800781 -0.5 -1.800781 -0.703124 -2.699219 -0.5 c -0.800781 0.199219 -1.601562 -0.300781 -1.800781 -1.203124 c -0.199219 -0.796876 0.300781 -1.597657 1.199219 -1.796876 c 1.703124 -0.402343 3.5 0 4.902343 0.898438 c 1.5 1 2.5 2.398438 2.800781 4.101562 c 0.796876 3.5 -1.5 7 -5.101562 7.796876 c -0.5 0.101562 -0.898438 0.101562 -1.398438 0.101562 c -3 0 -5.800781 -2.101562 -6.402343 -5.199219 c 0 -0.699219 0.5 -1.5 1.300781 -1.601562 z m 1.898438 18.5 c 0.203124 0.902343 0.703124 1.699219 1.5 2.300781 c 0.800781 0.5 1.800781 0.699219 2.703124 0.5 c 0.796876 -0.199219 1.597657 0.300781 1.796876 1.199219 c 0.203124 0.800781 -0.296876 1.601562 -1.199219 1.800781 c -0.5 0.101562 -0.898438 0.101562 -1.398438 0.101562 c -1.300781 0 -2.5 -0.402343 -3.601562 -1.101562 c -1.5 -1 -2.5 -2.398438 -2.800781 -4.101562 c -0.398438 -1.699219 0 -3.5 0.902343 -4.898438 c 1 -1.5 2.398438 -2.5 4.097657 -2.898438 c 1.703124 -0.402343 3.5 0 4.902343 0.898438 c 1.5 1 2.5 2.398438 2.800781 4.101562 c 0.199219 0.796876 -0.300781 1.597657 -1.203124 1.796876 c -0.796876 0.203124 -1.597657 -0.296876 -1.796876 -1.199219 c -0.203124 -0.898438 -0.703124 -1.699219 -1.5 -2.199219 c -0.800781 -0.5 -1.800781 -0.699219 -2.703124 -0.5 c -0.898438 0.199219 -1.699219 0.699219 -2.199219 1.5 s -0.5 1.800781 -0.300781 2.699219 z m -62.597657 51.699219 c 0 1.101562 -0.902343 1.902343 -1.902343 1.902343 h -7.5 c -1.097657 0 -1.898438 -0.902343 -1.898438 -1.902343 v -6.296876 c 0 -1.101562 0.800781 -1.902343 1.898438 -1.902343 h 7.5 c 1 0 1.902343 0.902343 1.902343 1.902343 z m 0 -17.097657 c 0 1.097657 -0.902343 1.898438 -1.902343 1.898438 h -7.5 c -1.097657 0 -1.898438 -0.898438 -1.898438 -1.898438 v -6.300781 c 0 -1.101562 0.800781 -1.898438 1.898438 -1.898438 h 7.5 c 1 0 1.902343 0.796876 1.902343 1.898438 z m 0 -17.101562 c 0 1 -0.902343 1.902343 -1.902343 1.902343 h -7.5 c -1.097657 0 -1.898438 -0.902343 -1.898438 -1.902343 v -6.300781 c 0 -1 0.800781 -1.898438 1.898438 -1.898438 h 7.5 c 1 0 1.902343 0.898438 1.902343 1.898438 z m -10.902343 -18.199219 c 0 -2.898438 2.300781 -5.199219 5.203124 -5.199219 c 2.898438 0 5.199219 2.300781 5.199219 5.199219 s -2.300781 5.199219 -5.199219 5.199219 c -2.902343 0 -5.203124 -2.398438 -5.203124 -5.199219 z m 28 52.398438 c 0 1.101562 -0.898438 1.902343 -1.898438 1.902343 h -7.5 c -1.101562 0 -1.898438 -0.902343 -1.898438 -1.902343 v -6.296876 c 0 -1.101562 0.796876 -1.902343 1.898438 -1.902343 h 7.5 c 1 0 1.898438 0.902343 1.898438 1.902343 z m 0 -17.097657 c 0 1.097657 -0.898438 1.898438 -1.898438 1.898438 h -7.5 c -1.101562 0 -1.898438 -0.898438 -1.898438 -1.898438 v -6.300781 c 0 -1.101562 0.796876 -1.898438 1.898438 -1.898438 h 7.5 c 1 0 1.898438 0.796876 1.898438 1.898438 z m 0 -17.101562 c 0 1 -0.898438 1.902343 -1.898438 1.902343 h -7.5 c -1.101562 0 -1.898438 -0.902343 -1.898438 -1.902343 v -6.300781 c 0 -1 0.796876 -1.898438 1.898438 -1.898438 h 7.5 c 1 0 1.898438 0.898438 1.898438 1.898438 z m -10.898438 -18.199219 c 0 -2.898438 2.300781 -5.199219 5.199219 -5.199219 c 2.902343 0 5.199219 2.300781 5.199219 5.199219 s -2.296876 5.199219 -5.199219 5.199219 c -2.800781 0 -5.199219 -2.398438 -5.199219 -5.199219 z m 28.101562 52.398438 c 0 1.101562 -0.902343 1.902343 -1.902343 1.902343 h -7.5 c -1.097657 0 -1.898438 -0.902343 -1.898438 -1.902343 v -6.296876 c 0 -1.101562 0.800781 -1.902343 1.898438 -1.902343 h 7.5 c 1 0 1.902343 0.902343 1.902343 1.902343 z m 0 -17.097657 c 0 1.097657 -0.902343 1.898438 -1.902343 1.898438 h -7.5 c -1.097657 0 -1.898438 -0.898438 -1.898438 -1.898438 v -6.300781 c 0 -1.101562 0.800781 -1.898438 1.898438 -1.898438 h 7.5 c 1 0 1.902343 0.796876 1.902343 1.898438 z m 0 -17.101562 c 0 1 -0.902343 1.902343 -1.902343 1.902343 h -7.5 c -1.097657 0 -1.898438 -0.902343 -1.898438 -1.902343 v -6.300781 c 0 -1 0.800781 -1.898438 1.898438 -1.898438 h 7.5 c 1 0 1.902343 0.898438 1.902343 1.898438 z m -10.902343 -18.199219 c 0 -2.898438 2.300781 -5.199219 5.199219 -5.199219 c 2.902343 0 5.203124 2.300781 5.203124 5.199219 s -2.300781 5.199219 -5.203124 5.199219 c -2.796876 0 -5.199219 -2.398438 -5.199219 -5.199219 z m 28.101562 52.398438 c 0 1.101562 -0.902343 1.902343 -1.902343 1.902343 h -7.5 c -1 0 -1.898438 -0.902343 -1.898438 -1.902343 v -6.296876 c 0 -1.101562 0.898438 -1.902343 1.898438 -1.902343 h 7.5 c 1 0 1.902343 0.902343 1.902343 1.902343 z m 0 -17.097657 c 0 1.097657 -0.902343 1.898438 -1.902343 1.898438 h -7.5 c -1 0 -1.898438 -0.898438 -1.898438 -1.898438 v -6.300781 c 0 -1.101562 0.898438 -1.898438 1.898438 -1.898438 h 7.5 c 1 0 1.902343 0.796876 1.902343 1.898438 z m 0 -17.101562 c 0 1 -0.902343 1.902343 -1.902343 1.902343 h -7.5 c -1 0 -1.898438 -0.902343 -1.898438 -1.902343 v -6.300781 c 0 -1 0.898438 -1.898438 1.898438 -1.898438 h 7.5 c 1 0 1.902343 0.898438 1.902343 1.898438 z m -10.902343 -18.199219 c 0 -2.898438 2.300781 -5.199219 5.203124 -5.199219 c 2.898438 0 5.199219 2.300781 5.199219 5.199219 s -2.300781 5.199219 -5.199219 5.199219 c -2.800781 0 -5.203124 -2.398438 -5.203124 -5.199219 z m 2.300781 -10.101562 h -45.699219 c -4.800781 0 -8.601562 -3.898438 -8.601562 -8.597657 c 0 -4.800781 3.902343 -8.601562 8.601562 -8.601562 h 45.601562 c 4.796876 0 8.597657 3.902343 8.597657 8.601562 c 0.101562 4.800781 -3.800781 8.597657 -8.5 8.597657 z m 30.601562 43 c 0 2.402343 -1.902343 4.300781 -4.300781 4.300781 h -1.300781 v 17.101562 c 0 1.097657 -0.898438 2 -2 2 c -1.097657 0 -2 -0.902343 -2 -2 v -17.101562 h -1.398438 c -2.402343 0 -4.300781 -1.898438 -4.300781 -4.300781 v -2.398438 c 0 -2.398438 1.898438 -4.300781 4.300781 -4.300781 h 1.398438 v -11.699219 c 0 -1.101562 0.902343 -2 2 -2 c 1.101562 0 2 0.898438 2 2 v 11.800781 h 1.300781 c 2.398438 0 4.300781 1.898438 4.300781 4.300781 z m 0 0"/>
        <path d="m 76.199219 26.699219 h -45.699219 c -2.5 0 -4.601562 2.101562 -4.601562 4.601562 s 2.101562 4.597657 4.601562 4.597657 h 45.601562 c 2.5 0 4.597657 -2.097657 4.597657 -4.597657 c 0.101562 -2.5 -2 -4.601562 -4.5 -4.601562 z m 0 0"/>
    </g>
</svg>
