<?xml version="1.0" encoding="UTF-8"?>
<svg height="16px" viewBox="0 0 16 16" width="16px" xmlns="http://www.w3.org/2000/svg">
    <path d="m 4 0 c -2.199219 0 -4 1.800781 -4 4 v 8 c 0 2.199219 1.800781 4 4 4 h 8 c 2.199219 0 4 -1.800781 4 -4 v -8 c 0 -2.199219 -1.800781 -4 -4 -4 z m 0 2 h 8 c 1.125 0 2 0.875 2 2 v 8 c 0 1.125 -0.875 2 -2 2 h -8 c -1.125 0 -2 -0.875 -2 -2 v -8 c 0 -1.125 0.875 -2 2 -2 z m 0 0"/>
    <path d="m 5 7 c 0.550781 0 1 0.449219 1 1 v 1 c 0 0.550781 -0.449219 1 -1 1 s -1 -0.449219 -1 -1 v -1 c 0 -0.550781 0.449219 -1 1 -1 z m 0 0"/>
    <path d="m 8 7 c 0.550781 0 1 0.449219 1 1 v 1 c 0 0.550781 -0.449219 1 -1 1 s -1 -0.449219 -1 -1 v -1 c 0 -0.550781 0.449219 -1 1 -1 z m 0 0"/>
    <path d="m 5 3 c 0.550781 0 1 0.449219 1 1 v 1 c 0 0.550781 -0.449219 1 -1 1 s -1 -0.449219 -1 -1 v -1 c 0 -0.550781 0.449219 -1 1 -1 z m 0 0"/>
    <path d="m 8 3 c 0.550781 0 1 0.449219 1 1 v 1 c 0 0.550781 -0.449219 1 -1 1 s -1 -0.449219 -1 -1 v -1 c 0 -0.550781 0.449219 -1 1 -1 z m 0 0"/>
    <path d="m 11 7 c 0.550781 0 1 0.449219 1 1 v 1 c 0 0.550781 -0.449219 1 -1 1 s -1 -0.449219 -1 -1 v -1 c 0 -0.550781 0.449219 -1 1 -1 z m 0 0"/>
    <path d="m 11 3 c 0.550781 0 1 0.449219 1 1 v 1 c 0 0.550781 -0.449219 1 -1 1 s -1 -0.449219 -1 -1 v -1 c 0 -0.550781 0.449219 -1 1 -1 z m 0 0"/>
    <path d="m 9 10 c 0.550781 0 1 0.449219 1 1 v 1 c 0 0.550781 -0.449219 1 -1 1 s -1 -0.449219 -1 -1 v -1 c 0 -0.550781 0.449219 -1 1 -1 z m 0 0"/>
    <path d="m 3.570312 11 h 8.859376 c 0.316406 0 0.570312 0.253906 0.570312 0.570312 c 0 0.316407 -0.253906 0.570313 -0.570312 0.570313 h -8.859376 c -0.316406 0 -0.570312 -0.253906 -0.570312 -0.570313 c 0 -0.316406 0.253906 -0.570312 0.570312 -0.570312 z m 0 0"/>
</svg>
