<?xml version="1.0" encoding="UTF-8"?>
<svg height="128px" viewBox="0 0 128 128" width="128px" xmlns="http://www.w3.org/2000/svg" xmlns:xlink="http://www.w3.org/1999/xlink">

  <defs>
    <style>
      .cls-1 {
        fill: #1d1d1b;
      }
    </style>
  </defs>
  <title>drum machine symbolic</title>
  <path class="cls-1" d="M24.8,26.2h57.1a1.88,1.88,0,0,1,1.88,1.88v9a1.88,1.88,0,0,1-1.88,1.88H24.8a1.88,1.88,0,0,1-1.88-1.88v-9A1.89,1.89,0,0,1,24.8,26.2Z" />
  <path class="cls-1" d="M108.68,13.48H19.32A9.31,9.31,0,0,0,10,22.77v84a9.31,9.31,0,0,0,9.3,9.3h89.36a9.31,9.31,0,0,0,9.3-9.3v-84A9.31,9.31,0,0,0,108.68,13.48ZM94.19,31.42h0a1,1,0,0,1,1,1,4.07,4.07,0,1,0,4.19-4,4.15,4.15,0,0,0-1.68.31A1,1,0,0,1,96.93,27a6.07,6.07,0,1,1,2.33,11.68h-.18a6.08,6.08,0,0,1-5.89-6.25A1,1,0,0,1,94.19,31.42ZM93.62,47.7a6.07,6.07,0,1,1,11.27,4.5,1,1,0,1,1-1.85-.74,4.07,4.07,0,1,0-5.29,2.27,4,4,0,0,0,1.68.29,1,1,0,0,1,1,.95,1,1,0,0,1-1,1.05h-.27A6,6,0,0,1,97,55.59,6.08,6.08,0,0,1,93.62,47.7ZM33.25,102.44a1.91,1.91,0,0,1-1.91,1.9H23.82a1.9,1.9,0,0,1-1.9-1.9v-6.3a1.9,1.9,0,0,1,1.9-1.9h7.52a1.91,1.91,0,0,1,1.91,1.9Zm0-17.13a1.91,1.91,0,0,1-1.91,1.9H23.82a1.9,1.9,0,0,1-1.9-1.9V79a1.9,1.9,0,0,1,1.9-1.9h7.52A1.91,1.91,0,0,1,33.25,79Zm0-17.14a1.91,1.91,0,0,1-1.91,1.9H23.82a1.9,1.9,0,0,1-1.9-1.9V61.86a1.9,1.9,0,0,1,1.9-1.9h7.52a1.91,1.91,0,0,1,1.91,1.9ZM23.46,50a4.12,4.12,0,1,1,4.12,4.12A4.13,4.13,0,0,1,23.46,50Zm27,52.49a1.9,1.9,0,0,1-1.9,1.9H41a1.9,1.9,0,0,1-1.9-1.9v-6.3a1.9,1.9,0,0,1,1.9-1.9h7.53a1.9,1.9,0,0,1,1.9,1.9Zm0-17.13a1.9,1.9,0,0,1-1.9,1.9H41a1.9,1.9,0,0,1-1.9-1.9V79A1.9,1.9,0,0,1,41,77.1h7.53a1.9,1.9,0,0,1,1.9,1.9Zm0-17.14a1.9,1.9,0,0,1-1.9,1.9H41a1.9,1.9,0,0,1-1.9-1.9V61.86A1.9,1.9,0,0,1,41,60h7.53a1.9,1.9,0,0,1,1.9,1.9ZM40.64,50a4.12,4.12,0,1,1,4.12,4.12A4.13,4.13,0,0,1,40.64,50Zm27,52.49a1.9,1.9,0,0,1-1.9,1.9H58.18a1.9,1.9,0,0,1-1.9-1.9v-6.3a1.9,1.9,0,0,1,1.9-1.9h7.53a1.9,1.9,0,0,1,1.9,1.9Zm0-17.13a1.9,1.9,0,0,1-1.9,1.9H58.18a1.9,1.9,0,0,1-1.9-1.9V79a1.9,1.9,0,0,1,1.9-1.9h7.53a1.9,1.9,0,0,1,1.9,1.9Zm0-17.14a1.9,1.9,0,0,1-1.9,1.9H58.18a1.9,1.9,0,0,1-1.9-1.9V61.86a1.9,1.9,0,0,1,1.9-1.9h7.53a1.9,1.9,0,0,1,1.9,1.9ZM57.82,50A4.13,4.13,0,1,1,62,54.07,4.13,4.13,0,0,1,57.82,50Zm27,52.49a1.9,1.9,0,0,1-1.9,1.9H75.37a1.91,1.91,0,0,1-1.91-1.9v-6.3a1.91,1.91,0,0,1,1.91-1.9h7.52a1.9,1.9,0,0,1,1.9,1.9Zm0-17.13a1.9,1.9,0,0,1-1.9,1.9H75.37a1.91,1.91,0,0,1-1.91-1.9V79a1.91,1.91,0,0,1,1.91-1.9h7.52a1.9,1.9,0,0,1,1.9,1.9Zm0-17.14a1.9,1.9,0,0,1-1.9,1.9H75.37a1.91,1.91,0,0,1-1.91-1.9V61.86A1.91,1.91,0,0,1,75.37,60h7.52a1.9,1.9,0,0,1,1.9,1.9ZM75,50a4.12,4.12,0,1,1,4.12,4.12A4.12,4.12,0,0,1,75,50ZM85.79,37.06a3.88,3.88,0,0,1-3.88,3.88H24.8a3.88,3.88,0,0,1-3.88-3.88v-9A3.89,3.89,0,0,1,24.8,24.2H81.91a3.89,3.89,0,0,1,3.88,3.89ZM107.08,81.7a3.3,3.3,0,0,1-3.29,3.3h-3.53v19.34a1,1,0,0,1-2,0V85H94.64a3.3,3.3,0,0,1-3.3-3.3V79.88a3.29,3.29,0,0,1,3.3-3.29h3.62V64.5a1,1,0,0,1,2,0V76.59h3.53a3.29,3.29,0,0,1,3.29,3.29Z" />
</svg>