<?xml version="1.0" encoding="UTF-8"?>
<svg height="128px" viewBox="0 0 128 128" width="128px" xmlns="http://www.w3.org/2000/svg" xmlns:xlink="http://www.w3.org/1999/xlink">
    <filter id="a" height="100%" width="100%" x="0%" y="0%">
        <feColorMatrix color-interpolation-filters="sRGB" values="0 0 0 0 1 0 0 0 0 1 0 0 0 0 1 0 0 0 1 0"/>
    </filter>
    <linearGradient id="b" gradientUnits="userSpaceOnUse" x1="12.43" x2="115.57" y1="97.959999" y2="97.959999">
        <stop offset="0" stop-color="#af4eff"/>
        <stop offset="0.03" stop-color="#cf84ff"/>
        <stop offset="0.15" stop-color="#af4eff"/>
        <stop offset="0.5" stop-color="#af4eff"/>
        <stop offset="0.85" stop-color="#af4eff"/>
        <stop offset="0.97" stop-color="#cf84ff"/>
        <stop offset="1" stop-color="#af4eff"/>
    </linearGradient>
    <linearGradient id="c" gradientUnits="userSpaceOnUse" x1="96.089996" x2="107.779999" y1="93.75" y2="93.75">
        <stop offset="0" stop-color="#9f2bff"/>
        <stop offset="0.1" stop-color="#b95bff"/>
        <stop offset="0.25" stop-color="#9f2bff"/>
        <stop offset="0.5" stop-color="#9f2bff"/>
        <stop offset="0.75" stop-color="#9f2bff"/>
        <stop offset="0.91" stop-color="#b95bff"/>
        <stop offset="1" stop-color="#9f2bff"/>
    </linearGradient>
    <linearGradient id="d" gradientUnits="userSpaceOnUse">
        <stop offset="0" stop-color="#9646e0"/>
        <stop offset="0.3" stop-color="#b65fff"/>
        <stop offset="0.5" stop-color="#b65fff"/>
    </linearGradient>
    <linearGradient id="e" x1="58.080002" x2="66" xlink:href="#d" y1="92.120003" y2="92.120003"/>
    <linearGradient id="f" x1="47.220001" x2="39.310001" xlink:href="#d" y1="92.120003" y2="92.120003"/>
    <clipPath id="g">
        <rect height="128" width="128"/>
    </clipPath>
    <clipPath id="h">
        <rect height="128" width="128"/>
    </clipPath>
    <mask id="i">
        <g filter="url(#a)">
            <g clip-path="url(#h)" filter="url(#a)">
                <g clip-path="url(#g)">
                    <path d="m 20.429688 79.929688 h 87.140624 c 4.417969 0 8 3.582031 8 8 v 20.082031 c 0 4.417969 -3.582031 8 -8 8 h -87.140624 c -4.417969 0 -8 -3.582031 -8 -8 v -20.082031 c 0 -4.417969 3.582031 -8 8 -8 z m 0 0" fill="url(#b)"/>
                    <path d="m 20.429688 12.5 h 87.140624 c 4.417969 0 8 3.582031 8 8 v 79.488281 c 0 4.421875 -3.582031 8 -8 8 h -87.140624 c -4.417969 0 -8 -3.578125 -8 -8 v -79.488281 c 0 -4.417969 3.582031 -8 8 -8 z m 0 0" fill="#d38cff"/>
                    <path d="m 25.050781 45.171875 h 7.300781 c 2.207032 0 4 1.789063 4 4 v 3.476563 c 0 2.210937 -1.792968 4 -4 4 h -7.300781 c -2.210937 0 -4 -1.789063 -4 -4 v -3.476563 c 0 -2.210937 1.789063 -4 4 -4 z m 0 0" fill="#c37bff"/>
                    <path d="m 25.050781 41.78125 h 7.300781 c 2.207032 0 4 1.789062 4 4 v 3.480469 c 0 2.207031 -1.792968 4 -4 4 h -7.300781 c -2.210937 0 -4 -1.792969 -4 -4 v -3.480469 c 0 -2.210938 1.789063 -4 4 -4 z m 0 0" fill="#edccff"/>
                    <path d="m 25.050781 65.070312 h 7.300781 c 2.207032 0 4 1.789063 4 4 v 3.480469 c 0 2.207031 -1.792968 4 -4 4 h -7.300781 c -2.210937 0 -4 -1.792969 -4 -4 v -3.480469 c 0 -2.210937 1.789063 -4 4 -4 z m 0 0" fill="#c37bff"/>
                    <path d="m 25.050781 61.671875 h 7.300781 c 2.207032 0 4 1.789063 4 4 v 3.476563 c 0 2.210937 -1.792968 4 -4 4 h -7.300781 c -2.210937 0 -4 -1.789063 -4 -4 v -3.476563 c 0 -2.210937 1.789063 -4 4 -4 z m 0 0" fill="#edccff"/>
                    <path d="m 25.050781 25.269531 h 7.300781 c 2.207032 0 4 1.792969 4 4 v 3.480469 c 0 2.210938 -1.792968 4 -4 4 h -7.300781 c -2.210937 0 -4 -1.789062 -4 -4 v -3.480469 c 0 -2.207031 1.789063 -4 4 -4 z m 0 0" fill="#e7bbff"/>
                    <path d="m 25.050781 21.878906 h 7.300781 c 2.207032 0 4 1.792969 4 4 v 3.480469 c 0 2.210937 -1.792968 4 -4 4 h -7.300781 c -2.210937 0 -4 -1.789063 -4 -4 v -3.480469 c 0 -2.207031 1.789063 -4 4 -4 z m 0 0" fill="#ffffff"/>
                    <path d="m 48.738281 45.171875 h 7.300781 c 2.210938 0 4 1.789063 4 4 v 3.476563 c 0 2.210937 -1.789062 4 -4 4 h -7.300781 c -2.207031 0 -4 -1.789063 -4 -4 v -3.476563 c 0 -2.210937 1.792969 -4 4 -4 z m 0 0" fill="#e7bbff"/>
                    <path d="m 48.738281 41.78125 h 7.300781 c 2.210938 0 4 1.789062 4 4 v 3.480469 c 0 2.207031 -1.789062 4 -4 4 h -7.300781 c -2.207031 0 -4 -1.792969 -4 -4 v -3.480469 c 0 -2.210938 1.792969 -4 4 -4 z m 0 0" fill="#ffffff"/>
                    <path d="m 48.738281 65.070312 h 7.300781 c 2.210938 0 4 1.789063 4 4 v 3.480469 c 0 2.207031 -1.789062 4 -4 4 h -7.300781 c -2.207031 0 -4 -1.792969 -4 -4 v -3.480469 c 0 -2.210937 1.792969 -4 4 -4 z m 0 0" fill="#e7bbff"/>
                    <path d="m 48.738281 61.671875 h 7.300781 c 2.210938 0 4 1.789063 4 4 v 3.476563 c 0 2.210937 -1.789062 4 -4 4 h -7.300781 c -2.207031 0 -4 -1.789063 -4 -4 v -3.476563 c 0 -2.210937 1.792969 -4 4 -4 z m 0 0" fill="#ffffff"/>
                    <path d="m 96.121094 65.070312 h 7.300781 c 2.207031 0 4 1.789063 4 4 v 3.480469 c 0 2.207031 -1.792969 4 -4 4 h -7.300781 c -2.210938 0 -4 -1.792969 -4 -4 v -3.480469 c 0 -2.210937 1.789062 -4 4 -4 z m 0 0" fill="#e7bbff"/>
                    <path d="m 96.121094 61.671875 h 7.300781 c 2.207031 0 4 1.789063 4 4 v 3.476563 c 0 2.210937 -1.792969 4 -4 4 h -7.300781 c -2.210938 0 -4 -1.789063 -4 -4 v -3.476563 c 0 -2.210937 1.789062 -4 4 -4 z m 0 0" fill="#ffffff"/>
                    <path d="m 48.738281 25.269531 h 7.300781 c 2.210938 0 4 1.792969 4 4 v 3.480469 c 0 2.210938 -1.789062 4 -4 4 h -7.300781 c -2.207031 0 -4 -1.789062 -4 -4 v -3.480469 c 0 -2.207031 1.792969 -4 4 -4 z m 0 0" fill="#c37bff"/>
                    <path d="m 48.738281 21.878906 h 7.300781 c 2.210938 0 4 1.792969 4 4 v 3.480469 c 0 2.210937 -1.789062 4 -4 4 h -7.300781 c -2.207031 0 -4 -1.789063 -4 -4 v -3.480469 c 0 -2.207031 1.792969 -4 4 -4 z m 0 0" fill="#edccff"/>
                    <path d="m 72.429688 45.171875 h 7.300781 c 2.207031 0 4 1.789063 4 4 v 3.476563 c 0 2.210937 -1.792969 4 -4 4 h -7.300781 c -2.207032 0 -4 -1.789063 -4 -4 v -3.476563 c 0 -2.210937 1.792968 -4 4 -4 z m 0 0" fill="#c37bff"/>
                    <path d="m 72.429688 41.78125 h 7.300781 c 2.207031 0 4 1.789062 4 4 v 3.480469 c 0 2.207031 -1.792969 4 -4 4 h -7.300781 c -2.207032 0 -4 -1.792969 -4 -4 v -3.480469 c 0 -2.210938 1.792968 -4 4 -4 z m 0 0" fill="#edccff"/>
                    <path d="m 72.429688 65.070312 h 7.300781 c 2.207031 0 4 1.789063 4 4 v 3.480469 c 0 2.207031 -1.792969 4 -4 4 h -7.300781 c -2.207032 0 -4 -1.792969 -4 -4 v -3.480469 c 0 -2.210937 1.792968 -4 4 -4 z m 0 0" fill="#c37bff"/>
                    <path d="m 72.429688 61.671875 h 7.300781 c 2.207031 0 4 1.789063 4 4 v 3.476563 c 0 2.210937 -1.792969 4 -4 4 h -7.300781 c -2.207032 0 -4 -1.789063 -4 -4 v -3.476563 c 0 -2.210937 1.792968 -4 4 -4 z m 0 0" fill="#edccff"/>
                    <path d="m 72.429688 25.269531 h 7.300781 c 2.207031 0 4 1.792969 4 4 v 3.480469 c 0 2.210938 -1.792969 4 -4 4 h -7.300781 c -2.207032 0 -4 -1.789062 -4 -4 v -3.480469 c 0 -2.207031 1.792968 -4 4 -4 z m 0 0" fill="#c37bff"/>
                    <path d="m 72.429688 21.878906 h 7.300781 c 2.207031 0 4 1.792969 4 4 v 3.480469 c 0 2.210937 -1.792969 4 -4 4 h -7.300781 c -2.207032 0 -4 -1.789063 -4 -4 v -3.480469 c 0 -2.207031 1.792968 -4 4 -4 z m 0 0" fill="#edccff"/>
                    <path d="m 96.121094 45.171875 h 7.300781 c 2.207031 0 4 1.789063 4 4 v 3.476563 c 0 2.210937 -1.792969 4 -4 4 h -7.300781 c -2.210938 0 -4 -1.789063 -4 -4 v -3.476563 c 0 -2.210937 1.789062 -4 4 -4 z m 0 0" fill="#c37bff"/>
                    <path d="m 96.121094 41.78125 h 7.300781 c 2.207031 0 4 1.789062 4 4 v 3.480469 c 0 2.207031 -1.792969 4 -4 4 h -7.300781 c -2.210938 0 -4 -1.792969 -4 -4 v -3.480469 c 0 -2.210938 1.789062 -4 4 -4 z m 0 0" fill="#edccff"/>
                    <path d="m 96.121094 25.269531 h 7.300781 c 2.207031 0 4 1.792969 4 4 v 3.480469 c 0 2.210938 -1.792969 4 -4 4 h -7.300781 c -2.210938 0 -4 -1.789062 -4 -4 v -3.480469 c 0 -2.207031 1.789062 -4 4 -4 z m 0 0" fill="#c37bff"/>
                    <path d="m 96.121094 21.878906 h 7.300781 c 2.207031 0 4 1.792969 4 4 v 3.480469 c 0 2.210937 -1.792969 4 -4 4 h -7.300781 c -2.210938 0 -4 -1.789063 -4 -4 v -3.480469 c 0 -2.207031 1.789062 -4 4 -4 z m 0 0" fill="#edccff"/>
                    <path d="m 100.800781 87.660156 h 2.269531 c 2.601563 0 4.710938 2.109375 4.710938 4.710938 v 2.757812 c 0 2.601563 -2.109375 4.710938 -4.710938 4.710938 h -2.269531 c -2.601562 0 -4.710937 -2.109375 -4.710937 -4.710938 v -2.757812 c 0 -2.601563 2.109375 -4.710938 4.710937 -4.710938 z m 0 0" fill="#9f2bff"/>
                    <path d="m 101.089844 87.660156 h 1.691406 c 2.761719 0 5 2.238282 5 5 v 2.179688 c 0 2.761718 -2.238281 5 -5 5 h -1.691406 c -2.761719 0 -5 -2.238282 -5 -5 v -2.179688 c 0 -2.761718 2.238281 -5 5 -5 z m 0 0" fill="url(#c)"/>
                    <path d="m 101.089844 83.96875 h 1.691406 c 2.761719 0 5 2.238281 5 5 v 2.179688 c 0 2.761718 -2.238281 5 -5 5 h -1.691406 c -2.761719 0 -5 -2.238282 -5 -5 v -2.179688 c 0 -2.761719 2.238281 -5 5 -5 z m 0 0" fill="#b65fff"/>
                    <path d="m 24.351562 92.121094 h 61.597657 c 1.105469 0 2 0.894531 2 2 v 0.269531 c 0 1.105469 -0.894531 2 -2 2 h -61.597657 c -1.105468 0 -2 -0.894531 -2 -2 v -0.269531 c 0 -1.105469 0.894532 -2 2 -2 z m 0 0" fill="#edccff"/>
                    <path d="m 43.300781 95.089844 h 18.699219 c 1.105469 0 2 0.894531 2 2 v 0.898437 c 0 1.105469 -0.894531 2 -2 2 h -18.699219 c -1.105469 0 -2 -0.894531 -2 -2 v -0.898437 c 0 -1.105469 0.894531 -2 2 -2 z m 0 0" fill="#9f2bff"/>
                    <path d="m 58.089844 95.089844 h -10.859375 v -11.910156 h 10.859375 z m 0 0" fill="#b65fff"/>
                    <path d="m 54.191406 95.089844 h -3.070312 v -11.910156 h 3.070312 z m 0 0" fill="#c37bff"/>
                    <path d="m 59.878906 88.191406 c -0.976562 0 -1.769531 -0.792968 -1.769531 -1.769531 v -0.152344 v 8.140625 c -0.015625 1.964844 1.566406 3.574219 3.53125 3.589844 h 2.808594 c 0.417969 0 0.816406 -0.167969 1.109375 -0.464844 c 0.289062 -0.296875 0.449218 -0.699218 0.441406 -1.113281 v -6.683594 c 0 -0.855469 -0.695312 -1.546875 -1.550781 -1.546875 z m 0 0" fill="url(#e)"/>
                    <path d="m 47.21875 86.269531 v 0.152344 c 0 0.976563 -0.792969 1.769531 -1.769531 1.769531 h -4.597657 c -0.410156 0 -0.804687 0.164063 -1.09375 0.453125 c -0.289062 0.292969 -0.449218 0.683594 -0.449218 1.09375 v 6.683594 c -0.007813 0.414063 0.148437 0.816406 0.4375 1.113281 c 0.289062 0.296875 0.6875 0.464844 1.105468 0.464844 h 2.808594 c 1.960938 0 3.554688 -1.585938 3.558594 -3.550781 z m 0 0" fill="url(#f)"/>
                </g>
            </g>
        </g>
    </mask>
    <mask id="j">
        <g filter="url(#a)">
            <rect fill-opacity="0.8" height="184.32" width="184.32" x="-28.16" y="-28.16"/>
        </g>
    </mask>
    <linearGradient id="k" gradientTransform="matrix(0 0.37 -0.98462 0 295.38501 -30.360001)" gradientUnits="userSpaceOnUse" x1="300" x2="428" y1="235" y2="235">
        <stop offset="0" stop-color="#f9f06b"/>
        <stop offset="1" stop-color="#f5c211"/>
    </linearGradient>
    <clipPath id="l">
        <rect height="128" width="128"/>
    </clipPath>
    <clipPath id="m">
        <rect height="128" width="128"/>
    </clipPath>
    <path d="m 20.429688 79.929688 h 87.140624 c 4.417969 0 8 3.582031 8 8 v 20.082031 c 0 4.417969 -3.582031 8 -8 8 h -87.140624 c -4.417969 0 -8 -3.582031 -8 -8 v -20.082031 c 0 -4.417969 3.582031 -8 8 -8 z m 0 0" fill="url(#b)"/>
    <path d="m 20.429688 12.5 h 87.140624 c 4.417969 0 8 3.582031 8 8 v 79.488281 c 0 4.421875 -3.582031 8 -8 8 h -87.140624 c -4.417969 0 -8 -3.578125 -8 -8 v -79.488281 c 0 -4.417969 3.582031 -8 8 -8 z m 0 0" fill="#d38cff"/>
    <path d="m 25.050781 45.171875 h 7.300781 c 2.207032 0 4 1.789063 4 4 v 3.476563 c 0 2.210937 -1.792968 4 -4 4 h -7.300781 c -2.210937 0 -4 -1.789063 -4 -4 v -3.476563 c 0 -2.210937 1.789063 -4 4 -4 z m 0 0" fill="#c37bff"/>
    <path d="m 25.050781 41.78125 h 7.300781 c 2.207032 0 4 1.789062 4 4 v 3.480469 c 0 2.207031 -1.792968 4 -4 4 h -7.300781 c -2.210937 0 -4 -1.792969 -4 -4 v -3.480469 c 0 -2.210938 1.789063 -4 4 -4 z m 0 0" fill="#edccff"/>
    <path d="m 25.050781 65.070312 h 7.300781 c 2.207032 0 4 1.789063 4 4 v 3.480469 c 0 2.207031 -1.792968 4 -4 4 h -7.300781 c -2.210937 0 -4 -1.792969 -4 -4 v -3.480469 c 0 -2.210937 1.789063 -4 4 -4 z m 0 0" fill="#c37bff"/>
    <path d="m 25.050781 61.671875 h 7.300781 c 2.207032 0 4 1.789063 4 4 v 3.476563 c 0 2.210937 -1.792968 4 -4 4 h -7.300781 c -2.210937 0 -4 -1.789063 -4 -4 v -3.476563 c 0 -2.210937 1.789063 -4 4 -4 z m 0 0" fill="#edccff"/>
    <path d="m 25.050781 25.269531 h 7.300781 c 2.207032 0 4 1.792969 4 4 v 3.480469 c 0 2.210938 -1.792968 4 -4 4 h -7.300781 c -2.210937 0 -4 -1.789062 -4 -4 v -3.480469 c 0 -2.207031 1.789063 -4 4 -4 z m 0 0" fill="#e7bbff"/>
    <path d="m 25.050781 21.878906 h 7.300781 c 2.207032 0 4 1.792969 4 4 v 3.480469 c 0 2.210937 -1.792968 4 -4 4 h -7.300781 c -2.210937 0 -4 -1.789063 -4 -4 v -3.480469 c 0 -2.207031 1.789063 -4 4 -4 z m 0 0" fill="#ffffff"/>
    <path d="m 48.738281 45.171875 h 7.300781 c 2.210938 0 4 1.789063 4 4 v 3.476563 c 0 2.210937 -1.789062 4 -4 4 h -7.300781 c -2.207031 0 -4 -1.789063 -4 -4 v -3.476563 c 0 -2.210937 1.792969 -4 4 -4 z m 0 0" fill="#e7bbff"/>
    <path d="m 48.738281 41.78125 h 7.300781 c 2.210938 0 4 1.789062 4 4 v 3.480469 c 0 2.207031 -1.789062 4 -4 4 h -7.300781 c -2.207031 0 -4 -1.792969 -4 -4 v -3.480469 c 0 -2.210938 1.792969 -4 4 -4 z m 0 0" fill="#ffffff"/>
    <path d="m 48.738281 65.070312 h 7.300781 c 2.210938 0 4 1.789063 4 4 v 3.480469 c 0 2.207031 -1.789062 4 -4 4 h -7.300781 c -2.207031 0 -4 -1.792969 -4 -4 v -3.480469 c 0 -2.210937 1.792969 -4 4 -4 z m 0 0" fill="#e7bbff"/>
    <path d="m 48.738281 61.671875 h 7.300781 c 2.210938 0 4 1.789063 4 4 v 3.476563 c 0 2.210937 -1.789062 4 -4 4 h -7.300781 c -2.207031 0 -4 -1.789063 -4 -4 v -3.476563 c 0 -2.210937 1.792969 -4 4 -4 z m 0 0" fill="#ffffff"/>
    <path d="m 96.121094 65.070312 h 7.300781 c 2.207031 0 4 1.789063 4 4 v 3.480469 c 0 2.207031 -1.792969 4 -4 4 h -7.300781 c -2.210938 0 -4 -1.792969 -4 -4 v -3.480469 c 0 -2.210937 1.789062 -4 4 -4 z m 0 0" fill="#e7bbff"/>
    <path d="m 96.121094 61.671875 h 7.300781 c 2.207031 0 4 1.789063 4 4 v 3.476563 c 0 2.210937 -1.792969 4 -4 4 h -7.300781 c -2.210938 0 -4 -1.789063 -4 -4 v -3.476563 c 0 -2.210937 1.789062 -4 4 -4 z m 0 0" fill="#ffffff"/>
    <path d="m 48.738281 25.269531 h 7.300781 c 2.210938 0 4 1.792969 4 4 v 3.480469 c 0 2.210938 -1.789062 4 -4 4 h -7.300781 c -2.207031 0 -4 -1.789062 -4 -4 v -3.480469 c 0 -2.207031 1.792969 -4 4 -4 z m 0 0" fill="#c37bff"/>
    <path d="m 48.738281 21.878906 h 7.300781 c 2.210938 0 4 1.792969 4 4 v 3.480469 c 0 2.210937 -1.789062 4 -4 4 h -7.300781 c -2.207031 0 -4 -1.789063 -4 -4 v -3.480469 c 0 -2.207031 1.792969 -4 4 -4 z m 0 0" fill="#edccff"/>
    <path d="m 72.429688 45.171875 h 7.300781 c 2.207031 0 4 1.789063 4 4 v 3.476563 c 0 2.210937 -1.792969 4 -4 4 h -7.300781 c -2.207032 0 -4 -1.789063 -4 -4 v -3.476563 c 0 -2.210937 1.792968 -4 4 -4 z m 0 0" fill="#c37bff"/>
    <path d="m 72.429688 41.78125 h 7.300781 c 2.207031 0 4 1.789062 4 4 v 3.480469 c 0 2.207031 -1.792969 4 -4 4 h -7.300781 c -2.207032 0 -4 -1.792969 -4 -4 v -3.480469 c 0 -2.210938 1.792968 -4 4 -4 z m 0 0" fill="#edccff"/>
    <path d="m 72.429688 65.070312 h 7.300781 c 2.207031 0 4 1.789063 4 4 v 3.480469 c 0 2.207031 -1.792969 4 -4 4 h -7.300781 c -2.207032 0 -4 -1.792969 -4 -4 v -3.480469 c 0 -2.210937 1.792968 -4 4 -4 z m 0 0" fill="#c37bff"/>
    <path d="m 72.429688 61.671875 h 7.300781 c 2.207031 0 4 1.789063 4 4 v 3.476563 c 0 2.210937 -1.792969 4 -4 4 h -7.300781 c -2.207032 0 -4 -1.789063 -4 -4 v -3.476563 c 0 -2.210937 1.792968 -4 4 -4 z m 0 0" fill="#edccff"/>
    <path d="m 72.429688 25.269531 h 7.300781 c 2.207031 0 4 1.792969 4 4 v 3.480469 c 0 2.210938 -1.792969 4 -4 4 h -7.300781 c -2.207032 0 -4 -1.789062 -4 -4 v -3.480469 c 0 -2.207031 1.792968 -4 4 -4 z m 0 0" fill="#c37bff"/>
    <path d="m 72.429688 21.878906 h 7.300781 c 2.207031 0 4 1.792969 4 4 v 3.480469 c 0 2.210937 -1.792969 4 -4 4 h -7.300781 c -2.207032 0 -4 -1.789063 -4 -4 v -3.480469 c 0 -2.207031 1.792968 -4 4 -4 z m 0 0" fill="#edccff"/>
    <path d="m 96.121094 45.171875 h 7.300781 c 2.207031 0 4 1.789063 4 4 v 3.476563 c 0 2.210937 -1.792969 4 -4 4 h -7.300781 c -2.210938 0 -4 -1.789063 -4 -4 v -3.476563 c 0 -2.210937 1.789062 -4 4 -4 z m 0 0" fill="#c37bff"/>
    <path d="m 96.121094 41.78125 h 7.300781 c 2.207031 0 4 1.789062 4 4 v 3.480469 c 0 2.207031 -1.792969 4 -4 4 h -7.300781 c -2.210938 0 -4 -1.792969 -4 -4 v -3.480469 c 0 -2.210938 1.789062 -4 4 -4 z m 0 0" fill="#edccff"/>
    <path d="m 96.121094 25.269531 h 7.300781 c 2.207031 0 4 1.792969 4 4 v 3.480469 c 0 2.210938 -1.792969 4 -4 4 h -7.300781 c -2.210938 0 -4 -1.789062 -4 -4 v -3.480469 c 0 -2.207031 1.789062 -4 4 -4 z m 0 0" fill="#c37bff"/>
    <path d="m 96.121094 21.878906 h 7.300781 c 2.207031 0 4 1.792969 4 4 v 3.480469 c 0 2.210937 -1.792969 4 -4 4 h -7.300781 c -2.210938 0 -4 -1.789063 -4 -4 v -3.480469 c 0 -2.207031 1.789062 -4 4 -4 z m 0 0" fill="#edccff"/>
    <path d="m 100.800781 87.660156 h 2.269531 c 2.601563 0 4.710938 2.109375 4.710938 4.710938 v 2.757812 c 0 2.601563 -2.109375 4.710938 -4.710938 4.710938 h -2.269531 c -2.601562 0 -4.710937 -2.109375 -4.710937 -4.710938 v -2.757812 c 0 -2.601563 2.109375 -4.710938 4.710937 -4.710938 z m 0 0" fill="#9f2bff"/>
    <path d="m 101.089844 87.660156 h 1.691406 c 2.761719 0 5 2.238282 5 5 v 2.179688 c 0 2.761718 -2.238281 5 -5 5 h -1.691406 c -2.761719 0 -5 -2.238282 -5 -5 v -2.179688 c 0 -2.761718 2.238281 -5 5 -5 z m 0 0" fill="url(#c)"/>
    <path d="m 101.089844 83.96875 h 1.691406 c 2.761719 0 5 2.238281 5 5 v 2.179688 c 0 2.761718 -2.238281 5 -5 5 h -1.691406 c -2.761719 0 -5 -2.238282 -5 -5 v -2.179688 c 0 -2.761719 2.238281 -5 5 -5 z m 0 0" fill="#b65fff"/>
    <path d="m 24.351562 92.121094 h 61.597657 c 1.105469 0 2 0.894531 2 2 v 0.269531 c 0 1.105469 -0.894531 2 -2 2 h -61.597657 c -1.105468 0 -2 -0.894531 -2 -2 v -0.269531 c 0 -1.105469 0.894532 -2 2 -2 z m 0 0" fill="#edccff"/>
    <path d="m 43.300781 95.089844 h 18.699219 c 1.105469 0 2 0.894531 2 2 v 0.898437 c 0 1.105469 -0.894531 2 -2 2 h -18.699219 c -1.105469 0 -2 -0.894531 -2 -2 v -0.898437 c 0 -1.105469 0.894531 -2 2 -2 z m 0 0" fill="#9f2bff"/>
    <path d="m 58.089844 95.089844 h -10.859375 v -11.910156 h 10.859375 z m 0 0" fill="#b65fff"/>
    <path d="m 54.191406 95.089844 h -3.070312 v -11.910156 h 3.070312 z m 0 0" fill="#c37bff"/>
    <path d="m 59.878906 88.191406 c -0.976562 0 -1.769531 -0.792968 -1.769531 -1.769531 v -0.152344 v 8.140625 c -0.015625 1.964844 1.566406 3.574219 3.53125 3.589844 h 2.808594 c 0.417969 0 0.816406 -0.167969 1.109375 -0.464844 c 0.289062 -0.296875 0.449218 -0.699218 0.441406 -1.113281 v -6.683594 c 0 -0.855469 -0.695312 -1.546875 -1.550781 -1.546875 z m 0 0" fill="url(#e)"/>
    <path d="m 47.21875 86.269531 v 0.152344 c 0 0.976563 -0.792969 1.769531 -1.769531 1.769531 h -4.597657 c -0.410156 0 -0.804687 0.164063 -1.09375 0.453125 c -0.289062 0.292969 -0.449218 0.683594 -0.449218 1.09375 v 6.683594 c -0.007813 0.414063 0.148437 0.816406 0.4375 1.113281 c 0.289062 0.296875 0.6875 0.464844 1.105468 0.464844 h 2.808594 c 1.960938 0 3.554688 -1.585938 3.558594 -3.550781 z m 0 0" fill="url(#f)"/>
    <g mask="url(#i)">
        <g clip-path="url(#m)">
            <g mask="url(#j)">
                <g clip-path="url(#l)">
                    <path d="m 128 80.640625 v 47.359375 h -128 v -47.359375 z m 0 0" fill="url(#k)"/>
                    <path d="m 13.308594 80.640625 l 47.355468 47.359375 h 21.214844 l -47.359375 -47.359375 z m 42.421875 0 l 47.363281 47.359375 h 21.214844 l -47.363282 -47.359375 z m 42.429687 0 l 29.839844 29.839844 v -21.210938 l -8.628906 -8.628906 z m -98.160156 7.90625 v 21.214844 l 18.238281 18.238281 h 21.214844 z m 0 0"/>
                </g>
            </g>
        </g>
    </g>
</svg>
