<?xml version="1.0" encoding="UTF-8"?>
<svg height="128px" viewBox="0 0 128 128" width="128px" xmlns="http://www.w3.org/2000/svg" xmlns:xlink="http://www.w3.org/1999/xlink">
    <filter id="a" height="100%" width="100%" x="0%" y="0%">
        <feColorMatrix color-interpolation-filters="sRGB" values="0 0 0 0 1 0 0 0 0 1 0 0 0 0 1 0 0 0 1 0"/>
    </filter>
    <mask id="b">
        <g filter="url(#a)">
            <rect fill-opacity="0.1" height="153.6" width="153.6" x="-12.8" y="-12.8"/>
        </g>
    </mask>
    <clipPath id="c">
        <rect height="128" width="128"/>
    </clipPath>
    <path d="m 19.320312 15.980469 h 89.359376 c 3.753906 0 6.800781 3.042969 6.800781 6.800781 v 83.988281 c 0 3.757813 -3.046875 6.800781 -6.800781 6.800781 h -89.359376 c -3.753906 0 -6.800781 -3.042968 -6.800781 -6.800781 v -83.988281 c 0 -3.757812 3.046875 -6.800781 6.800781 -6.800781 z m 0 0" fill="#d994ff" stroke="#d994ff" stroke-miterlimit="10" stroke-width="5"/>
    <g mask="url(#b)">
        <g clip-path="url(#c)">
            <path d="m 23.820312 61.960938 h 7.53125 c 1.046876 0 1.898438 0.851562 1.898438 1.898437 v 6.3125 c 0 1.046875 -0.851562 1.898437 -1.898438 1.898437 h -7.53125 c -1.050781 0 -1.898437 -0.851562 -1.898437 -1.898437 v -6.3125 c 0 -1.046875 0.847656 -1.898437 1.898437 -1.898437 z m 0 0"/>
            <path d="m 41 61.960938 h 7.53125 c 1.046875 0 1.898438 0.851562 1.898438 1.898437 v 6.3125 c 0 1.046875 -0.851563 1.898437 -1.898438 1.898437 h -7.53125 c -1.050781 0 -1.898438 -0.851562 -1.898438 -1.898437 v -6.3125 c 0 -1.046875 0.847657 -1.898437 1.898438 -1.898437 z m 0 0"/>
            <path d="m 58.179688 61.960938 h 7.53125 c 1.046874 0 1.898437 0.851562 1.898437 1.898437 v 6.3125 c 0 1.046875 -0.851563 1.898437 -1.898437 1.898437 h -7.53125 c -1.050782 0 -1.898438 -0.851562 -1.898438 -1.898437 v -6.3125 c 0 -1.046875 0.847656 -1.898437 1.898438 -1.898437 z m 0 0"/>
            <path d="m 75.359375 61.960938 h 7.53125 c 1.046875 0 1.898437 0.851562 1.898437 1.898437 v 6.3125 c 0 1.046875 -0.851562 1.898437 -1.898437 1.898437 h -7.53125 c -1.046875 0 -1.898437 -0.851562 -1.898437 -1.898437 v -6.3125 c 0 -1.046875 0.851562 -1.898437 1.898437 -1.898437 z m 0 0"/>
            <path d="m 23.820312 79.101562 h 7.53125 c 1.046876 0 1.898438 0.847657 1.898438 1.898438 v 6.308594 c 0 1.050781 -0.851562 1.902344 -1.898438 1.902344 h -7.53125 c -1.050781 0 -1.898437 -0.851563 -1.898437 -1.902344 v -6.308594 c 0 -1.050781 0.847656 -1.898438 1.898437 -1.898438 z m 0 0"/>
            <path d="m 41 79.101562 h 7.53125 c 1.046875 0 1.898438 0.847657 1.898438 1.898438 v 6.308594 c 0 1.050781 -0.851563 1.902344 -1.898438 1.902344 h -7.53125 c -1.050781 0 -1.898438 -0.851563 -1.898438 -1.902344 v -6.308594 c 0 -1.050781 0.847657 -1.898438 1.898438 -1.898438 z m 0 0"/>
            <path d="m 58.179688 79.101562 h 7.53125 c 1.046874 0 1.898437 0.847657 1.898437 1.898438 v 6.308594 c 0 1.050781 -0.851563 1.902344 -1.898437 1.902344 h -7.53125 c -1.050782 0 -1.898438 -0.851563 -1.898438 -1.902344 v -6.308594 c 0 -1.050781 0.847656 -1.898438 1.898438 -1.898438 z m 0 0"/>
            <path d="m 75.359375 79.101562 h 7.53125 c 1.046875 0 1.898437 0.847657 1.898437 1.898438 v 6.308594 c 0 1.050781 -0.851562 1.902344 -1.898437 1.902344 h -7.53125 c -1.046875 0 -1.898437 -0.851563 -1.898437 -1.902344 v -6.308594 c 0 -1.050781 0.851562 -1.898438 1.898437 -1.898438 z m 0 0"/>
            <path d="m 23.820312 96.238281 h 7.53125 c 1.046876 0 1.898438 0.851563 1.898438 1.902344 v 6.308594 c 0 1.050781 -0.851562 1.902343 -1.898438 1.902343 h -7.53125 c -1.050781 0 -1.898437 -0.851562 -1.898437 -1.902343 v -6.308594 c 0 -1.050781 0.847656 -1.902344 1.898437 -1.902344 z m 0 0"/>
            <path d="m 41 96.238281 h 7.53125 c 1.046875 0 1.898438 0.851563 1.898438 1.902344 v 6.308594 c 0 1.050781 -0.851563 1.902343 -1.898438 1.902343 h -7.53125 c -1.050781 0 -1.898438 -0.851562 -1.898438 -1.902343 v -6.308594 c 0 -1.050781 0.847657 -1.902344 1.898438 -1.902344 z m 0 0"/>
            <path d="m 58.179688 96.238281 h 7.53125 c 1.046874 0 1.898437 0.851563 1.898437 1.902344 v 6.308594 c 0 1.050781 -0.851563 1.902343 -1.898437 1.902343 h -7.53125 c -1.050782 0 -1.898438 -0.851562 -1.898438 -1.902343 v -6.308594 c 0 -1.050781 0.847656 -1.902344 1.898438 -1.902344 z m 0 0"/>
            <path d="m 75.359375 96.238281 h 7.53125 c 1.046875 0 1.898437 0.851563 1.898437 1.902344 v 6.308594 c 0 1.050781 -0.851562 1.902343 -1.898437 1.902343 h -7.53125 c -1.046875 0 -1.898437 -0.851562 -1.898437 -1.902343 v -6.308594 c 0 -1.050781 0.851562 -1.902344 1.898437 -1.902344 z m 0 0"/>
            <path d="m 99.261719 106.339844 v -39.839844" fill="none" stroke="#000000" stroke-linecap="round" stroke-linejoin="round" stroke-width="2"/>
            <path d="m 94.640625 79.589844 h 9.140625 c 1.269531 0 2.296875 1.03125 2.296875 2.300781 v 1.808594 c 0 1.269531 -1.027344 2.300781 -2.296875 2.300781 h -9.140625 c -1.269531 0 -2.300781 -1.03125 -2.300781 -2.300781 v -1.808594 c 0 -1.269531 1.03125 -2.300781 2.300781 -2.300781 z m 0 0" stroke="#000000" stroke-linecap="round" stroke-linejoin="round" stroke-width="2"/>
            <path d="m 31.699219 51.949219 c 0 2.277343 -1.84375 4.121093 -4.121094 4.121093 c -2.273437 0 -4.117187 -1.84375 -4.117187 -4.121093 c 0 -2.273438 1.84375 -4.121094 4.117187 -4.121094 c 2.277344 0 4.121094 1.847656 4.121094 4.121094 z m 0 0"/>
            <path d="m 48.878906 51.949219 c 0 2.277343 -1.84375 4.121093 -4.117187 4.121093 c -2.277344 0 -4.121094 -1.84375 -4.121094 -4.121093 c 0 -2.273438 1.84375 -4.121094 4.121094 -4.121094 c 2.273437 0 4.117187 1.847656 4.117187 4.121094 z m 0 0"/>
            <path d="m 66.070312 51.949219 c 0 2.277343 -1.84375 4.121093 -4.121093 4.121093 c -2.273438 0 -4.121094 -1.84375 -4.121094 -4.121093 c 0 -2.273438 1.847656 -4.121094 4.121094 -4.121094 c 2.277343 0 4.121093 1.847656 4.121093 4.121094 z m 0 0"/>
            <path d="m 83.25 51.949219 c 0 2.277343 -1.84375 4.121093 -4.121094 4.121093 c -2.273437 0 -4.117187 -1.84375 -4.117187 -4.121093 c 0 -2.273438 1.84375 -4.121094 4.117187 -4.121094 c 2.277344 0 4.121094 1.847656 4.121094 4.121094 z m 0 0"/>
            <g fill="none" stroke="#000000" stroke-linejoin="round" stroke-width="2">
                <path d="m 104 53.828125 c 0.832031 -2.070313 0.199219 -4.445313 -1.550781 -5.832031 c -1.75 -1.386719 -4.203125 -1.460938 -6.03125 -0.179688 c -1.832031 1.277344 -2.601563 3.609375 -1.898438 5.730469 c 0.703125 2.117187 2.71875 3.523437 4.949219 3.453125" stroke-linecap="round"/>
                <path d="m 24.808594 27.199219 h 57.089844 c 1.597656 0 2.890624 1.292969 2.890624 2.890625 v 8.960937 c 0 1.59375 -1.292968 2.890625 -2.890624 2.890625 h -57.089844 c -1.59375 0 -2.886719 -1.296875 -2.886719 -2.890625 v -8.960937 c 0 -1.597656 1.292969 -2.890625 2.886719 -2.890625 z m 0 0"/>
                <path d="m 94.191406 34.421875 c -0.082031 2.796875 2.117188 5.132813 4.917969 5.214844 c 2.796875 0.082031 5.132813 -2.121094 5.214844 -4.917969 c 0.085937 -2.796875 -2.117188 -5.132812 -4.914063 -5.21875 c -0.714844 -0.019531 -1.429687 0.113281 -2.089844 0.390625" stroke-linecap="round"/>
            </g>
        </g>
    </g>
    <g fill="#ffffff">
        <path d="m 23.820312 59.960938 h 7.53125 c 1.046876 0 1.898438 0.851562 1.898438 1.898437 v 6.3125 c 0 1.046875 -0.851562 1.898437 -1.898438 1.898437 h -7.53125 c -1.050781 0 -1.898437 -0.851562 -1.898437 -1.898437 v -6.3125 c 0 -1.046875 0.847656 -1.898437 1.898437 -1.898437 z m 0 0"/>
        <path d="m 41 59.960938 h 7.53125 c 1.046875 0 1.898438 0.851562 1.898438 1.898437 v 6.3125 c 0 1.046875 -0.851563 1.898437 -1.898438 1.898437 h -7.53125 c -1.050781 0 -1.898438 -0.851562 -1.898438 -1.898437 v -6.3125 c 0 -1.046875 0.847657 -1.898437 1.898438 -1.898437 z m 0 0"/>
        <path d="m 58.179688 59.960938 h 7.53125 c 1.046874 0 1.898437 0.851562 1.898437 1.898437 v 6.3125 c 0 1.046875 -0.851563 1.898437 -1.898437 1.898437 h -7.53125 c -1.050782 0 -1.898438 -0.851562 -1.898438 -1.898437 v -6.3125 c 0 -1.046875 0.847656 -1.898437 1.898438 -1.898437 z m 0 0"/>
        <path d="m 75.359375 59.960938 h 7.53125 c 1.046875 0 1.898437 0.851562 1.898437 1.898437 v 6.3125 c 0 1.046875 -0.851562 1.898437 -1.898437 1.898437 h -7.53125 c -1.046875 0 -1.898437 -0.851562 -1.898437 -1.898437 v -6.3125 c 0 -1.046875 0.851562 -1.898437 1.898437 -1.898437 z m 0 0"/>
        <path d="m 23.820312 77.101562 h 7.53125 c 1.046876 0 1.898438 0.847657 1.898438 1.898438 v 6.308594 c 0 1.050781 -0.851562 1.902344 -1.898438 1.902344 h -7.53125 c -1.050781 0 -1.898437 -0.851563 -1.898437 -1.902344 v -6.308594 c 0 -1.050781 0.847656 -1.898438 1.898437 -1.898438 z m 0 0"/>
        <path d="m 41 77.101562 h 7.53125 c 1.046875 0 1.898438 0.847657 1.898438 1.898438 v 6.308594 c 0 1.050781 -0.851563 1.902344 -1.898438 1.902344 h -7.53125 c -1.050781 0 -1.898438 -0.851563 -1.898438 -1.902344 v -6.308594 c 0 -1.050781 0.847657 -1.898438 1.898438 -1.898438 z m 0 0"/>
        <path d="m 58.179688 77.101562 h 7.53125 c 1.046874 0 1.898437 0.847657 1.898437 1.898438 v 6.308594 c 0 1.050781 -0.851563 1.902344 -1.898437 1.902344 h -7.53125 c -1.050782 0 -1.898438 -0.851563 -1.898438 -1.902344 v -6.308594 c 0 -1.050781 0.847656 -1.898438 1.898438 -1.898438 z m 0 0"/>
        <path d="m 75.359375 77.101562 h 7.53125 c 1.046875 0 1.898437 0.847657 1.898437 1.898438 v 6.308594 c 0 1.050781 -0.851562 1.902344 -1.898437 1.902344 h -7.53125 c -1.046875 0 -1.898437 -0.851563 -1.898437 -1.902344 v -6.308594 c 0 -1.050781 0.851562 -1.898438 1.898437 -1.898438 z m 0 0"/>
        <path d="m 23.820312 94.238281 h 7.53125 c 1.046876 0 1.898438 0.851563 1.898438 1.902344 v 6.308594 c 0 1.050781 -0.851562 1.902343 -1.898438 1.902343 h -7.53125 c -1.050781 0 -1.898437 -0.851562 -1.898437 -1.902343 v -6.308594 c 0 -1.050781 0.847656 -1.902344 1.898437 -1.902344 z m 0 0"/>
        <path d="m 41 94.238281 h 7.53125 c 1.046875 0 1.898438 0.851563 1.898438 1.902344 v 6.308594 c 0 1.050781 -0.851563 1.902343 -1.898438 1.902343 h -7.53125 c -1.050781 0 -1.898438 -0.851562 -1.898438 -1.902343 v -6.308594 c 0 -1.050781 0.847657 -1.902344 1.898438 -1.902344 z m 0 0"/>
        <path d="m 58.179688 94.238281 h 7.53125 c 1.046874 0 1.898437 0.851563 1.898437 1.902344 v 6.308594 c 0 1.050781 -0.851563 1.902343 -1.898437 1.902343 h -7.53125 c -1.050782 0 -1.898438 -0.851562 -1.898438 -1.902343 v -6.308594 c 0 -1.050781 0.847656 -1.902344 1.898438 -1.902344 z m 0 0"/>
        <path d="m 75.359375 94.238281 h 7.53125 c 1.046875 0 1.898437 0.851563 1.898437 1.902344 v 6.308594 c 0 1.050781 -0.851562 1.902343 -1.898437 1.902343 h -7.53125 c -1.046875 0 -1.898437 -0.851562 -1.898437 -1.902343 v -6.308594 c 0 -1.050781 0.851562 -1.902344 1.898437 -1.902344 z m 0 0"/>
    </g>
    <path d="m 99.261719 104.339844 v -39.839844" fill="none" stroke="#ffffff" stroke-linecap="round" stroke-linejoin="round" stroke-width="2"/>
    <path d="m 94.640625 77.589844 h 9.140625 c 1.269531 0 2.296875 1.03125 2.296875 2.300781 v 1.808594 c 0 1.269531 -1.027344 2.300781 -2.296875 2.300781 h -9.140625 c -1.269531 0 -2.300781 -1.03125 -2.300781 -2.300781 v -1.808594 c 0 -1.269531 1.03125 -2.300781 2.300781 -2.300781 z m 0 0" fill="#d994ff" stroke="#ffffff" stroke-linecap="round" stroke-linejoin="round" stroke-width="2"/>
    <path d="m 31.699219 49.949219 c 0 2.277343 -1.84375 4.121093 -4.121094 4.121093 c -2.273437 0 -4.117187 -1.84375 -4.117187 -4.121093 c 0 -2.273438 1.84375 -4.121094 4.117187 -4.121094 c 2.277344 0 4.121094 1.847656 4.121094 4.121094 z m 0 0" fill="#ffffff"/>
    <path d="m 48.878906 49.949219 c 0 2.277343 -1.84375 4.121093 -4.117187 4.121093 c -2.277344 0 -4.121094 -1.84375 -4.121094 -4.121093 c 0 -2.273438 1.84375 -4.121094 4.121094 -4.121094 c 2.273437 0 4.117187 1.847656 4.117187 4.121094 z m 0 0" fill="#ffffff"/>
    <path d="m 66.070312 49.949219 c 0 2.277343 -1.84375 4.121093 -4.121093 4.121093 c -2.273438 0 -4.121094 -1.84375 -4.121094 -4.121093 c 0 -2.273438 1.847656 -4.121094 4.121094 -4.121094 c 2.277343 0 4.121093 1.847656 4.121093 4.121094 z m 0 0" fill="#ffffff"/>
    <path d="m 83.25 49.949219 c 0 2.277343 -1.84375 4.121093 -4.121094 4.121093 c -2.273437 0 -4.117187 -1.84375 -4.117187 -4.121093 c 0 -2.273438 1.84375 -4.121094 4.117187 -4.121094 c 2.277344 0 4.121094 1.847656 4.121094 4.121094 z m 0 0" fill="#ffffff"/>
    <path d="m 104 51.828125 c 0.832031 -2.070313 0.199219 -4.445313 -1.550781 -5.832031 c -1.75 -1.386719 -4.203125 -1.460938 -6.03125 -0.179688 c -1.832031 1.277344 -2.601563 3.609375 -1.898438 5.730469 c 0.703125 2.117187 2.71875 3.523437 4.949219 3.453125" fill="none" stroke="#ffffff" stroke-linecap="round" stroke-linejoin="round" stroke-width="2"/>
    <path d="m 24.808594 25.199219 h 57.089844 c 1.597656 0 2.890624 1.292969 2.890624 2.890625 v 8.960937 c 0 1.59375 -1.292968 2.890625 -2.890624 2.890625 h -57.089844 c -1.59375 0 -2.886719 -1.296875 -2.886719 -2.890625 v -8.960937 c 0 -1.597656 1.292969 -2.890625 2.886719 -2.890625 z m 0 0" fill="none" stroke="#ffffff" stroke-linejoin="round" stroke-width="2"/>
    <path d="m 94.191406 32.421875 c -0.082031 2.796875 2.117188 5.132813 4.917969 5.214844 c 2.796875 0.082031 5.132813 -2.121094 5.214844 -4.917969 c 0.085937 -2.796875 -2.117188 -5.132812 -4.914063 -5.21875 c -0.714844 -0.019531 -1.429687 0.113281 -2.089844 0.390625" fill="none" stroke="#ffffff" stroke-linecap="round" stroke-linejoin="round" stroke-width="2"/>
</svg>
