<?xml version="1.0" encoding="UTF-8"?>
<svg height="128px" viewBox="0 0 128 128" width="128px" xmlns="http://www.w3.org/2000/svg" xmlns:xlink="http://www.w3.org/1999/xlink">
    <filter id="a" height="100%" width="100%" x="0%" y="0%">
        <feColorMatrix color-interpolation-filters="sRGB" values="0 0 0 0 1 0 0 0 0 1 0 0 0 0 1 0 0 0 1 0"/>
    </filter>
    <mask id="b">
        <g filter="url(#a)">
            <rect fill-opacity="0.2" height="153.6" width="153.6" x="-12.8" y="-12.8"/>
        </g>
    </mask>
    <clipPath id="c">
        <rect height="128" width="128"/>
    </clipPath>
    <path d="m 31.199219 16 h 65.601562 c 10.300781 0 18.699219 8.398438 18.699219 18.699219 v 60.199219 c 0 10.300781 -8.398438 18.703124 -18.699219 18.703124 h -65.601562 c -10.300781 0 -18.699219 -8.402343 -18.699219 -18.703124 v -60.199219 c 0 -10.300781 8.398438 -18.699219 18.699219 -18.699219 z m 0 0" fill="#d994ff" stroke="#d994ff" stroke-miterlimit="10" stroke-width="5"/>
    <g mask="url(#b)">
        <g clip-path="url(#c)">
            <path d="m 23.800781 62 h 7.5 c 1 0 1.898438 0.898438 1.898438 1.898438 v 6.300781 c 0 1 -0.898438 1.902343 -1.898438 1.902343 h -7.5 c -1.101562 0 -1.902343 -0.902343 -1.902343 -1.902343 v -6.300781 c 0 -1.097657 0.902343 -1.898438 1.902343 -1.898438 z m 0 0"/>
            <path d="m 41 62 h 7.5 c 1 0 1.898438 0.898438 1.898438 1.898438 v 6.300781 c 0 1 -0.898438 1.902343 -1.898438 1.902343 h -7.5 c -1.101562 0 -1.898438 -0.902343 -1.898438 -1.902343 v -6.300781 c 0 -1.097657 0.796876 -1.898438 1.898438 -1.898438 z m 0 0"/>
            <path d="m 58.199219 62 h 7.5 c 1 0 1.902343 0.898438 1.902343 1.898438 v 6.300781 c 0 1 -0.902343 1.902343 -1.902343 1.902343 h -7.5 c -1.097657 0 -1.898438 -0.902343 -1.898438 -1.902343 v -6.300781 c 0 -1.097657 0.800781 -1.898438 1.898438 -1.898438 z m 0 0"/>
            <path d="m 75.398438 62 h 7.5 c 1 0 1.902343 0.898438 1.902343 1.898438 v 6.300781 c 0 1 -0.902343 1.902343 -1.902343 1.902343 h -7.5 c -1 0 -1.898438 -0.902343 -1.898438 -1.902343 v -6.300781 c 0 -1.097657 0.800781 -1.898438 1.898438 -1.898438 z m 0 0"/>
            <path d="m 23.800781 79.101562 h 7.5 c 1 0 1.898438 0.796876 1.898438 1.898438 v 6.300781 c 0 1.097657 -0.898438 1.898438 -1.898438 1.898438 h -7.5 c -1.101562 0 -1.902343 -0.898438 -1.902343 -1.898438 v -6.300781 c 0 -1.101562 0.902343 -1.898438 1.902343 -1.898438 z m 0 0"/>
            <path d="m 41 79.101562 h 7.5 c 1 0 1.898438 0.796876 1.898438 1.898438 v 6.300781 c 0 1.097657 -0.898438 1.898438 -1.898438 1.898438 h -7.5 c -1.101562 0 -1.898438 -0.898438 -1.898438 -1.898438 v -6.300781 c 0 -1.101562 0.796876 -1.898438 1.898438 -1.898438 z m 0 0"/>
            <path d="m 58.199219 79.101562 h 7.5 c 1 0 1.902343 0.796876 1.902343 1.898438 v 6.300781 c 0 1.097657 -0.902343 1.898438 -1.902343 1.898438 h -7.5 c -1.097657 0 -1.898438 -0.898438 -1.898438 -1.898438 v -6.300781 c 0 -1.101562 0.800781 -1.898438 1.898438 -1.898438 z m 0 0"/>
            <path d="m 75.398438 79.101562 h 7.5 c 1 0 1.902343 0.796876 1.902343 1.898438 v 6.300781 c 0 1.097657 -0.902343 1.898438 -1.902343 1.898438 h -7.5 c -1 0 -1.898438 -0.898438 -1.898438 -1.898438 v -6.300781 c 0 -1.101562 0.800781 -1.898438 1.898438 -1.898438 z m 0 0"/>
            <path d="m 23.800781 96.199219 h 7.5 c 1 0 1.898438 0.902343 1.898438 1.902343 v 6.296876 c 0 1.101562 -0.898438 1.902343 -1.898438 1.902343 h -7.5 c -1.101562 0 -1.902343 -0.902343 -1.902343 -1.902343 v -6.296876 c 0 -1 0.902343 -1.902343 1.902343 -1.902343 z m 0 0"/>
            <path d="m 41 96.199219 h 7.5 c 1 0 1.898438 0.902343 1.898438 1.902343 v 6.296876 c 0 1.101562 -0.898438 1.902343 -1.898438 1.902343 h -7.5 c -1.101562 0 -1.898438 -0.902343 -1.898438 -1.902343 v -6.296876 c 0 -1 0.796876 -1.902343 1.898438 -1.902343 z m 0 0"/>
            <path d="m 58.199219 96.199219 h 7.5 c 1 0 1.902343 0.902343 1.902343 1.902343 v 6.296876 c 0 1.101562 -0.902343 1.902343 -1.902343 1.902343 h -7.5 c -1.097657 0 -1.898438 -0.902343 -1.898438 -1.902343 v -6.296876 c 0 -1 0.800781 -1.902343 1.898438 -1.902343 z m 0 0"/>
            <path d="m 75.398438 96.199219 h 7.5 c 1 0 1.902343 0.902343 1.902343 1.902343 v 6.296876 c 0 1.101562 -0.902343 1.902343 -1.902343 1.902343 h -7.5 c -1 0 -1.898438 -0.902343 -1.898438 -1.902343 v -6.296876 c 0 -1 0.800781 -1.902343 1.898438 -1.902343 z m 0 0"/>
            <path d="m 99.300781 106.300781 v -39.800781" fill="none" stroke="#000000" stroke-linecap="round" stroke-linejoin="round" stroke-width="4"/>
            <path d="m 32.800781 52 c 0 2.898438 -2.300781 5.199219 -5.199219 5.199219 c -2.902343 0 -5.203124 -2.300781 -5.203124 -5.199219 s 2.300781 -5.199219 5.203124 -5.199219 c 2.898438 -0.101562 5.199219 2.300781 5.199219 5.199219 z m 0 0"/>
            <path d="m 50 52 c 0 2.898438 -2.300781 5.199219 -5.199219 5.199219 c -2.902343 0 -5.199219 -2.300781 -5.199219 -5.199219 s 2.296876 -5.199219 5.199219 -5.199219 c 2.800781 -0.101562 5.199219 2.300781 5.199219 5.199219 z m 0 0"/>
            <path d="m 67.199219 52 c 0 2.898438 -2.300781 5.199219 -5.199219 5.199219 s -5.199219 -2.300781 -5.199219 -5.199219 s 2.300781 -5.199219 5.199219 -5.199219 c 2.800781 -0.101562 5.199219 2.300781 5.199219 5.199219 z m 0 0"/>
            <path d="m 84.300781 52 c 0 2.898438 -2.300781 5.199219 -5.199219 5.199219 c -2.902343 0 -5.203124 -2.300781 -5.203124 -5.199219 s 2.300781 -5.199219 5.203124 -5.199219 c 2.898438 -0.101562 5.199219 2.300781 5.199219 5.199219 z m 0 0"/>
            <path d="m 94.300781 35.601562 c 0.597657 2.699219 3.300781 4.5 6 3.898438 s 4.5 -3.300781 3.898438 -6 c -0.597657 -2.699219 -3.300781 -4.5 -6 -3.898438" fill="none" stroke="#000000" stroke-linecap="round" stroke-linejoin="round" stroke-width="3"/>
            <path d="m 104.300781 50.898438 c -0.601562 -2.699219 -3.300781 -4.5 -6 -3.898438 s -4.5 3.300781 -3.902343 6 c 0.601562 2.699219 3.300781 4.5 6 3.898438" fill="none" stroke="#000000" stroke-linecap="round" stroke-linejoin="round" stroke-width="3"/>
            <path d="m 95.898438 87.699219 c -1.5 0 -2.796876 -1.199219 -2.796876 -2.800781 v -2.398438 c 0 -1.5 1.199219 -2.800781 2.796876 -2.800781 h 6.601562 c 1.5 0 2.800781 1.199219 2.800781 2.800781 v 2.398438 c 0 1.5 -1.199219 2.800781 -2.800781 2.800781 z m 0 0"/>
            <path d="m 102.5 81.300781 c 0.699219 0 1.300781 0.597657 1.300781 1.300781 v 2.398438 c 0 0.699219 -0.601562 1.300781 -1.300781 1.300781 h -6.601562 c -0.699219 0 -1.296876 -0.601562 -1.296876 -1.300781 v -2.398438 c 0 -0.703124 0.597657 -1.300781 1.296876 -1.300781 z m 0 -3 h -6.601562 c -2.398438 0 -4.296876 1.898438 -4.296876 4.300781 v 2.398438 c 0 2.398438 1.898438 4.300781 4.296876 4.300781 h 6.601562 c 2.398438 0 4.300781 -1.902343 4.300781 -4.300781 v -2.398438 c 0 -2.402343 -1.902343 -4.300781 -4.300781 -4.300781 z m 0 0"/>
            <path d="m 76.199219 28.699219 c 2.5 0 4.601562 2.101562 4.601562 4.601562 s -2.101562 4.597657 -4.601562 4.597657 h -45.699219 c -2.5 0 -4.601562 -2.097657 -4.601562 -4.597657 s 2.101562 -4.601562 4.601562 -4.601562 z m 0 -4 h -45.699219 c -4.800781 0 -8.601562 3.902343 -8.601562 8.601562 s 3.902343 8.597657 8.601562 8.597657 h 45.601562 c 4.796876 0 8.597657 -3.898438 8.597657 -8.597657 s -3.800781 -8.601562 -8.5 -8.601562 z m 0 0"/>
        </g>
    </g>
    <g fill="#ffffff">
        <path d="m 23.800781 60 h 7.5 c 1 0 1.898438 0.898438 1.898438 1.898438 v 6.300781 c 0 1 -0.898438 1.902343 -1.898438 1.902343 h -7.5 c -1.101562 0 -1.902343 -0.902343 -1.902343 -1.902343 v -6.300781 c 0 -1.097657 0.902343 -1.898438 1.902343 -1.898438 z m 0 0"/>
        <path d="m 41 60 h 7.5 c 1 0 1.898438 0.898438 1.898438 1.898438 v 6.300781 c 0 1 -0.898438 1.902343 -1.898438 1.902343 h -7.5 c -1.101562 0 -1.898438 -0.902343 -1.898438 -1.902343 v -6.300781 c 0 -1.097657 0.796876 -1.898438 1.898438 -1.898438 z m 0 0"/>
        <path d="m 58.199219 60 h 7.5 c 1 0 1.902343 0.898438 1.902343 1.898438 v 6.300781 c 0 1 -0.902343 1.902343 -1.902343 1.902343 h -7.5 c -1.097657 0 -1.898438 -0.902343 -1.898438 -1.902343 v -6.300781 c 0 -1.097657 0.800781 -1.898438 1.898438 -1.898438 z m 0 0"/>
        <path d="m 75.398438 60 h 7.5 c 1 0 1.902343 0.898438 1.902343 1.898438 v 6.300781 c 0 1 -0.902343 1.902343 -1.902343 1.902343 h -7.5 c -1 0 -1.898438 -0.902343 -1.898438 -1.902343 v -6.300781 c 0 -1.097657 0.800781 -1.898438 1.898438 -1.898438 z m 0 0"/>
        <path d="m 23.800781 77.101562 h 7.5 c 1 0 1.898438 0.796876 1.898438 1.898438 v 6.300781 c 0 1.097657 -0.898438 1.898438 -1.898438 1.898438 h -7.5 c -1.101562 0 -1.902343 -0.898438 -1.902343 -1.898438 v -6.300781 c 0 -1.101562 0.902343 -1.898438 1.902343 -1.898438 z m 0 0"/>
        <path d="m 41 77.101562 h 7.5 c 1 0 1.898438 0.796876 1.898438 1.898438 v 6.300781 c 0 1.097657 -0.898438 1.898438 -1.898438 1.898438 h -7.5 c -1.101562 0 -1.898438 -0.898438 -1.898438 -1.898438 v -6.300781 c 0 -1.101562 0.796876 -1.898438 1.898438 -1.898438 z m 0 0"/>
        <path d="m 58.199219 77.101562 h 7.5 c 1 0 1.902343 0.796876 1.902343 1.898438 v 6.300781 c 0 1.097657 -0.902343 1.898438 -1.902343 1.898438 h -7.5 c -1.097657 0 -1.898438 -0.898438 -1.898438 -1.898438 v -6.300781 c 0 -1.101562 0.800781 -1.898438 1.898438 -1.898438 z m 0 0"/>
        <path d="m 75.398438 77.101562 h 7.5 c 1 0 1.902343 0.796876 1.902343 1.898438 v 6.300781 c 0 1.097657 -0.902343 1.898438 -1.902343 1.898438 h -7.5 c -1 0 -1.898438 -0.898438 -1.898438 -1.898438 v -6.300781 c 0 -1.101562 0.800781 -1.898438 1.898438 -1.898438 z m 0 0"/>
        <path d="m 23.800781 94.199219 h 7.5 c 1 0 1.898438 0.902343 1.898438 1.902343 v 6.296876 c 0 1.101562 -0.898438 1.902343 -1.898438 1.902343 h -7.5 c -1.101562 0 -1.902343 -0.902343 -1.902343 -1.902343 v -6.296876 c 0 -1 0.902343 -1.902343 1.902343 -1.902343 z m 0 0"/>
        <path d="m 41 94.199219 h 7.5 c 1 0 1.898438 0.902343 1.898438 1.902343 v 6.296876 c 0 1.101562 -0.898438 1.902343 -1.898438 1.902343 h -7.5 c -1.101562 0 -1.898438 -0.902343 -1.898438 -1.902343 v -6.296876 c 0 -1 0.796876 -1.902343 1.898438 -1.902343 z m 0 0"/>
        <path d="m 58.199219 94.199219 h 7.5 c 1 0 1.902343 0.902343 1.902343 1.902343 v 6.296876 c 0 1.101562 -0.902343 1.902343 -1.902343 1.902343 h -7.5 c -1.097657 0 -1.898438 -0.902343 -1.898438 -1.902343 v -6.296876 c 0 -1 0.800781 -1.902343 1.898438 -1.902343 z m 0 0"/>
        <path d="m 75.398438 94.199219 h 7.5 c 1 0 1.902343 0.902343 1.902343 1.902343 v 6.296876 c 0 1.101562 -0.902343 1.902343 -1.902343 1.902343 h -7.5 c -1 0 -1.898438 -0.902343 -1.898438 -1.902343 v -6.296876 c 0 -1 0.800781 -1.902343 1.898438 -1.902343 z m 0 0"/>
    </g>
    <path d="m 99.300781 104.300781 v -39.800781" fill="none" stroke="#ffffff" stroke-linecap="round" stroke-linejoin="round" stroke-width="4"/>
    <path d="m 32.800781 50 c 0 2.898438 -2.300781 5.199219 -5.199219 5.199219 c -2.902343 0 -5.203124 -2.300781 -5.203124 -5.199219 s 2.300781 -5.199219 5.203124 -5.199219 c 2.898438 -0.101562 5.199219 2.300781 5.199219 5.199219 z m 0 0" fill="#ffffff"/>
    <path d="m 50 50 c 0 2.898438 -2.300781 5.199219 -5.199219 5.199219 c -2.902343 0 -5.199219 -2.300781 -5.199219 -5.199219 s 2.296876 -5.199219 5.199219 -5.199219 c 2.800781 -0.101562 5.199219 2.300781 5.199219 5.199219 z m 0 0" fill="#ffffff"/>
    <path d="m 67.199219 50 c 0 2.898438 -2.300781 5.199219 -5.199219 5.199219 s -5.199219 -2.300781 -5.199219 -5.199219 s 2.300781 -5.199219 5.199219 -5.199219 c 2.800781 -0.101562 5.199219 2.300781 5.199219 5.199219 z m 0 0" fill="#ffffff"/>
    <path d="m 84.300781 50 c 0 2.898438 -2.300781 5.199219 -5.199219 5.199219 c -2.902343 0 -5.203124 -2.300781 -5.203124 -5.199219 s 2.300781 -5.199219 5.203124 -5.199219 c 2.898438 -0.101562 5.199219 2.300781 5.199219 5.199219 z m 0 0" fill="#ffffff"/>
    <path d="m 94.300781 33.601562 c 0.597657 2.699219 3.300781 4.5 6 3.898438 s 4.5 -3.300781 3.898438 -6 c -0.597657 -2.699219 -3.300781 -4.5 -6 -3.898438" fill="none" stroke="#ffffff" stroke-linecap="round" stroke-linejoin="round" stroke-width="3"/>
    <path d="m 104.300781 48.898438 c -0.601562 -2.699219 -3.300781 -4.5 -6 -3.898438 s -4.5 3.300781 -3.902343 6 c 0.601562 2.699219 3.300781 4.5 6 3.898438" fill="none" stroke="#ffffff" stroke-linecap="round" stroke-linejoin="round" stroke-width="3"/>
    <path d="m 95.898438 85.699219 c -1.5 0 -2.796876 -1.199219 -2.796876 -2.800781 v -2.398438 c 0 -1.5 1.199219 -2.800781 2.796876 -2.800781 h 6.601562 c 1.5 0 2.800781 1.199219 2.800781 2.800781 v 2.398438 c 0 1.5 -1.199219 2.800781 -2.800781 2.800781 z m 0 0" fill="#d994ff"/>
    <path d="m 102.5 79.300781 c 0.699219 0 1.300781 0.597657 1.300781 1.300781 v 2.398438 c 0 0.699219 -0.601562 1.300781 -1.300781 1.300781 h -6.601562 c -0.699219 0 -1.296876 -0.601562 -1.296876 -1.300781 v -2.398438 c 0 -0.703124 0.597657 -1.300781 1.296876 -1.300781 z m 0 -3 h -6.601562 c -2.398438 0 -4.296876 1.898438 -4.296876 4.300781 v 2.398438 c 0 2.398438 1.898438 4.300781 4.296876 4.300781 h 6.601562 c 2.398438 0 4.300781 -1.902343 4.300781 -4.300781 v -2.398438 c 0 -2.402343 -1.902343 -4.300781 -4.300781 -4.300781 z m 0 0" fill="#ffffff"/>
    <path d="m 76.199219 26.699219 c 2.5 0 4.601562 2.101562 4.601562 4.601562 s -2.101562 4.597657 -4.601562 4.597657 h -45.699219 c -2.5 0 -4.601562 -2.097657 -4.601562 -4.597657 s 2.101562 -4.601562 4.601562 -4.601562 z m 0 -4 h -45.699219 c -4.800781 0 -8.601562 3.902343 -8.601562 8.601562 s 3.902343 8.597657 8.601562 8.597657 h 45.601562 c 4.796876 0 8.597657 -3.898438 8.597657 -8.597657 s -3.800781 -8.601562 -8.5 -8.601562 z m 0 0" fill="#ffffff"/>
</svg>
